<svg width="89" height="61" viewBox="0 0 89 61" fill="none" xmlns="http://www.w3.org/2000/svg">
<g clip-path="url(#clip0_999_806)">
<path d="M66.5078 0.743234C66.5078 1.51291 66.5206 2.24818 66.5078 2.97485C66.5078 3.32744 66.6338 3.45428 66.9756 3.44354C67.5609 3.42849 68.1484 3.45644 68.7337 3.43064C69.1331 3.41344 69.2528 3.56609 69.2506 3.96167C69.2407 7.75413 69.2407 11.5466 69.2506 15.339C69.2506 15.8335 69.0712 15.9303 68.6247 15.9281C64.4463 15.9131 60.268 15.9281 56.0896 15.9152C55.3932 15.9152 55.391 15.9152 55.3868 16.6268C55.3868 17.2159 55.4124 17.8093 55.3868 18.3962C55.3633 18.8262 55.5192 18.9488 55.9379 18.9466C58.3369 18.9294 60.7379 18.9466 63.139 18.9273C63.6239 18.9273 63.814 19.0563 63.7799 19.5529C63.7446 20.0166 63.7446 20.4823 63.7799 20.9461C63.8226 21.4556 63.6602 21.6211 63.139 21.6168C59.9219 21.5953 56.7027 21.6061 53.4856 21.6061C52.6631 21.6061 52.661 21.6061 52.661 22.408C52.661 23.8205 52.6759 25.2351 52.661 26.6476C52.661 27.0776 52.802 27.2002 53.2185 27.1937C54.7288 27.1744 56.2413 27.1937 57.7515 27.1787C58.1788 27.1787 58.3433 27.2862 58.3347 27.7463C58.3091 29.2512 58.3112 30.7561 58.3347 32.2611C58.3347 32.6911 58.2129 32.8286 57.79 32.805C57.2037 32.7717 56.616 32.7717 56.0298 32.805C55.6025 32.8286 55.4786 32.6502 55.4914 32.246C55.5128 31.4785 55.4914 30.7131 55.4914 29.8661C54.6007 29.8661 53.7697 29.8489 52.9451 29.8897C52.8426 29.8897 52.6781 30.223 52.6759 30.4036C52.6525 31.6935 52.6631 32.9835 52.6631 34.2734C52.6631 35.9031 52.6631 37.5305 52.6631 39.158C52.6631 39.5536 52.5542 39.702 52.1505 39.6783C51.6015 39.6504 51.0482 39.6955 50.497 39.6654C50.0698 39.6418 49.9075 39.7708 49.9203 40.2308C49.9545 41.3058 49.9203 42.3808 49.9395 43.4557C49.9395 43.8449 49.8284 44.0104 49.4247 43.9932C48.8372 43.9695 48.2498 43.9932 47.6645 43.9932C47.3163 43.9803 47.1902 44.1072 47.1988 44.4576C47.218 45.1886 47.1988 45.9217 47.1988 46.7516H44.9985C44.2743 46.7516 44.2743 46.7516 44.2743 47.4911C44.2743 50.7827 44.2743 54.0742 44.2636 57.3679C44.2636 57.8774 44.3939 58.0709 44.9173 58.0322C45.5197 57.9913 46.1264 58.0322 46.7309 58.0193C47.0642 58.0193 47.2159 58.116 47.2009 58.4794C47.1795 59.0685 47.1881 59.6597 47.2009 60.2488C47.2009 60.5261 47.1411 60.6787 46.8228 60.6787C45.205 60.6787 43.5872 60.6787 41.9694 60.6787C41.5678 60.6787 41.6319 60.395 41.6319 60.1542C41.6319 58.116 41.6319 56.0765 41.6319 54.0355C41.6319 53.5883 41.6169 53.1411 41.6319 52.6939C41.6447 52.3435 41.5016 52.221 41.1598 52.2317C40.5552 52.2511 39.9507 52.2317 39.3461 52.2317C39.0065 52.2317 38.8655 52.1328 38.8805 51.7738C38.904 51.1482 38.8805 50.5204 38.8805 49.8947C38.8805 49.6002 38.8014 49.4647 38.4917 49.4776C37.8145 49.4905 37.1395 49.4776 36.4644 49.4776C36.1611 49.4776 36.0607 49.6174 36.0671 49.9076C36.0799 50.4795 36.0372 51.0557 36.082 51.6276C36.1248 52.1457 35.924 52.2725 35.4412 52.2446C34.8922 52.208 34.3389 52.2446 33.7899 52.2317C33.4374 52.2188 33.3178 52.365 33.3264 52.7047C33.3392 53.2959 33.3071 53.8871 33.3264 54.4762C33.3456 54.8869 33.1832 55.0094 32.7987 54.9965C32.1771 54.9729 31.5533 54.9965 30.9317 54.9814C30.5579 54.9685 30.3806 55.0674 30.3998 55.4931C30.4329 56.1542 30.4329 56.8165 30.3998 57.4775C30.3784 57.9075 30.5493 58.0386 30.9573 58.0214C31.579 57.9956 32.2027 58.0365 32.8244 58.0086C33.2302 57.9914 33.3541 58.1504 33.337 58.5396C33.3114 59.0943 33.3178 59.6489 33.337 60.2036C33.337 60.5368 33.2452 60.6895 32.8842 60.6852C31.3205 60.6701 29.7547 60.6658 28.1846 60.6852C27.6996 60.6852 27.7573 60.3907 27.7573 60.0811C27.7573 56.8791 27.7573 53.6764 27.7573 50.4731C27.7573 50.0818 27.7146 49.6862 27.7445 49.2949C27.7744 48.9036 27.6505 48.6714 27.219 48.6843L27.1314 48.1597L26.4906 48.063C26.4297 47.772 26.352 47.4849 26.2577 47.203C26.1958 47.0525 26.0099 46.8139 25.9351 46.8332C25.5079 46.9407 25.1298 46.6548 24.6983 46.7236C24.2204 46.7695 23.7394 46.7746 23.2606 46.7387C22.1797 46.7236 22.3229 46.8977 22.3079 45.7626C22.3079 45.3154 22.2908 44.8682 22.3079 44.421C22.3186 44.0964 22.1904 43.9717 21.8807 43.9803C21.2398 43.9932 20.599 43.9588 19.9581 43.991C19.5309 44.0125 19.3493 43.8814 19.3728 43.4235C19.4048 42.7785 19.3728 42.1335 19.3856 41.4885C19.3856 41.166 19.2724 41.0371 18.9584 41.0457C18.3709 41.0607 17.7835 41.0199 17.1981 41.0457C16.7709 41.0693 16.6449 40.8952 16.662 40.4888C16.6876 39.8998 16.662 39.3085 16.662 38.7173C16.662 38.3948 16.5423 38.2679 16.2219 38.2873C15.6537 38.3023 15.0833 38.2658 14.513 38.3024C14.0473 38.3325 13.9041 38.182 13.9063 37.7025C13.9234 33.8563 13.9063 30.0101 13.9063 26.1618C13.9063 24.8568 13.9212 23.5496 13.9063 22.2446C13.9063 21.8146 14.0494 21.6792 14.4596 21.6985C14.9918 21.7254 15.5251 21.7254 16.0574 21.6985C16.4526 21.6792 16.5829 21.8146 16.5786 22.2166C16.5573 23.685 16.5786 25.1513 16.5616 26.6197C16.5616 27.0497 16.6876 27.2281 17.1341 27.2023C17.7023 27.1722 18.2726 27.2023 18.843 27.1894C19.1784 27.1894 19.3258 27.2862 19.3108 27.6495C19.2873 28.2386 19.3279 28.8298 19.3001 29.4189C19.2809 29.8274 19.439 29.9521 19.8257 29.9392C20.4665 29.9177 21.1074 29.9392 21.7482 29.9392C22.1114 29.9392 22.2588 30.0424 22.2438 30.4272C22.2161 31.0872 22.2438 31.7515 22.2289 32.4116C22.2289 32.747 22.3143 32.8975 22.6753 32.8932C24.2411 32.8932 25.8048 32.8932 27.3749 32.8932C27.6697 32.8932 27.7872 32.7749 27.7808 32.4782C27.768 31.8333 27.7958 31.1883 27.7659 30.5433C27.7445 30.0875 27.8748 29.8854 28.364 29.9263C28.8532 29.9671 29.3616 29.8962 29.8593 29.9435C30.4297 30.0015 30.5579 29.75 30.5301 29.2361C30.4959 28.5912 30.5301 27.9225 30.5301 27.2002H33.8818C35.0054 27.2002 34.8025 27.2518 34.8196 26.252C34.8196 25.8049 34.8345 25.3577 34.8196 24.9105C34.8046 24.5622 34.9413 24.4354 35.2852 24.4397C36.2294 24.4547 37.1715 24.4397 38.1136 24.4397C38.9018 24.4397 38.904 24.4397 38.9082 23.67C38.9082 23.1519 38.921 22.6337 38.9082 22.1156C38.9082 21.8146 39.0172 21.6856 39.312 21.7028C39.8631 21.7028 40.4164 21.6727 40.9654 21.7028C41.5144 21.7329 41.6703 21.5803 41.6639 21.0213C41.6361 18.1941 41.6511 15.367 41.6511 12.5399C41.6511 9.71272 41.6639 6.88556 41.6404 4.06056C41.6404 3.55963 41.7921 3.39839 42.2813 3.42848C42.811 3.46288 43.3494 3.41558 43.8791 3.42848C44.285 3.44568 44.4004 3.27585 44.3833 2.88671C44.3555 2.29763 44.3833 1.7064 44.3833 1.11517C44.3833 0.809878 44.4837 0.665843 44.8105 0.667992C51.9582 0.676592 59.1059 0.680173 66.2536 0.678739C66.3396 0.694754 66.4245 0.716295 66.5078 0.743234ZM50.0036 6.26638C50.0036 5.89015 50.0036 5.51606 50.0036 5.14198C50.0036 4.84529 49.884 4.73134 49.5892 4.73779C48.9163 4.73779 48.2434 4.75069 47.5705 4.73779C47.2864 4.73779 47.1966 4.84744 47.1988 5.11618C47.1988 5.86435 47.1988 6.62113 47.1988 7.3607C47.1988 7.66169 47.312 7.77347 47.6068 7.76702C48.2476 7.76702 48.8885 7.74767 49.5294 7.76702C49.9416 7.78422 50.0549 7.60579 50.0249 7.22525C49.9844 6.89846 50.0036 6.57597 50.0036 6.26638Z" fill="#D4B03A"/>
<path d="M69.4389 50.8446H50.728C50.0722 50.8446 49.7475 50.3243 50.0359 49.731C50.0713 49.6853 50.1154 49.6473 50.1657 49.6192C50.216 49.5911 50.2714 49.5736 50.3286 49.5676C50.5589 49.5511 50.79 49.5475 51.0207 49.5568H88.1818C88.8782 49.5568 89.1752 49.9868 88.9081 50.6318C88.8783 50.6805 88.8385 50.7222 88.7913 50.7541C88.7442 50.786 88.6908 50.8073 88.6347 50.8167C88.4218 50.8383 88.2076 50.8448 87.9938 50.836H69.4411L69.4389 50.8446Z" fill="#D4B03A"/>
<path d="M11.1593 50.8425C7.67443 50.8425 4.19031 50.8425 0.706898 50.8425C0.577137 50.8375 0.45101 50.798 0.341292 50.7281C0.231574 50.6582 0.142165 50.5603 0.0821046 50.4445C0.0220439 50.3286 -0.00653518 50.1988 -0.000727407 50.0682C0.00508036 49.9377 0.045061 49.811 0.11517 49.701C0.199514 49.6171 0.312793 49.5694 0.431321 49.5677C0.676983 49.5462 0.926928 49.5677 1.17686 49.5677C7.96709 49.5677 14.758 49.5677 21.5497 49.5677C21.7633 49.5677 22.1457 49.6064 22.167 49.6945C22.2333 50.0244 22.2333 50.3643 22.167 50.6942C22.1521 50.7738 21.8359 50.8404 21.6565 50.8404C20.0052 50.8533 18.3518 50.8404 16.6984 50.8404L11.1593 50.8425Z" fill="#D4B03A"/>
<path d="M8.4614 55.0502H11.5375C12.125 55.0502 12.7124 55.076 13.2956 55.0502C13.7228 55.0244 13.8745 55.2093 13.8382 55.6092C13.8371 55.6271 13.8371 55.645 13.8382 55.6629C13.8382 56.5423 13.8382 56.5423 12.9837 56.5423H9.20052C8.46354 56.5423 8.46353 56.5423 8.4614 55.7769C8.45926 55.5576 8.4614 55.3448 8.4614 55.0502Z" fill="#D4B03A"/>
<path d="M69.3704 60.6589C68.6056 60.6589 67.8409 60.6374 67.0783 60.6589C66.651 60.6783 66.5506 60.4719 66.5955 60.1107C66.6339 59.799 66.4182 59.3561 67.042 59.3604C68.6085 59.3776 70.1751 59.3776 71.7416 59.3604C72.2778 59.3604 72.1688 59.7173 72.1688 60.0183C72.1688 60.3193 72.2478 60.6783 71.7223 60.6632C70.9362 60.6439 70.1522 60.6589 69.3704 60.6589Z" fill="#D4B03A"/>
<path d="M2.7619 59.3802C3.50743 59.3802 4.25724 59.4017 4.99636 59.3802C5.61372 59.3587 5.42359 59.7972 5.45777 60.1176C5.49408 60.4723 5.41291 60.683 4.97713 60.6765C3.52238 60.6572 2.06764 60.6464 0.612897 60.6765C0.0126281 60.6916 0.0873952 60.3412 0.0660333 59.9563C0.0425352 59.5263 0.177107 59.3479 0.632115 59.3694C1.34133 59.406 2.05269 59.3802 2.7619 59.3802Z" fill="#D4B03A"/>
<path d="M78.3339 54.9748H76.7381C76.1486 54.9748 76.3792 54.5276 76.3429 54.2374C76.3066 53.9472 76.3237 53.6698 76.7574 53.6784C77.8041 53.6999 78.8487 53.7064 79.8954 53.6913C80.5512 53.6913 80.3098 54.1557 80.3526 54.4803C80.3996 54.8415 80.2564 55.0028 79.8762 54.9834C79.3614 54.9598 78.8466 54.9834 78.3339 54.9834V54.9748Z" fill="#D4B03A"/>
<path d="M20.7934 59.3823H21.5325C22.2332 59.3823 22.2097 59.3822 22.2353 60.0853C22.2524 60.5152 22.1306 60.7001 21.6756 60.6743C21.0729 60.6432 20.469 60.6432 19.8663 60.6743C19.3322 60.7001 19.3771 60.3626 19.3707 60.0079C19.3643 59.6531 19.3707 59.3199 19.8834 59.3758C20.1864 59.3942 20.4901 59.3964 20.7934 59.3823Z" fill="#D4B03A"/>
<path d="M58.3243 59.2876H57.5297C56.8269 59.2876 56.8098 59.2877 56.8397 58.6018C56.8397 58.404 56.9657 58.0557 57.0533 58.0471C57.4442 58.0084 57.9355 57.9461 58.2111 58.1439C58.4055 58.2772 58.2944 58.8297 58.3243 59.2876Z" fill="#D4B03A"/>
</g>
<defs>
<clipPath id="clip0_999_806">
<rect width="89" height="60" fill="white" transform="translate(0 0.680664)"/>
</clipPath>
</defs>
</svg>
