<svg width="17" height="21" viewBox="0 0 19 20" fill="none" xmlns="http://www.w3.org/2000/svg">
<path d="M14.7223 19.6806H4.26449C4.22462 19.6679 4.1859 19.6517 4.14488 19.6424C3.85711 19.5777 3.55837 19.5441 3.28273 19.4458C1.59947 18.845 0.53335 17.6764 0.108057 15.933C0.0664521 15.7618 0.0358264 15.5872 0 15.4143C0 11.9263 0 8.43887 0 4.95145C0.0132904 4.90519 0.0265808 4.8595 0.0392934 4.81324C0.15544 4.39286 0.21438 3.94587 0.396979 3.55671C1.27646 1.69012 2.75921 0.702473 4.83251 0.689751C7.93438 0.670669 11.0357 0.688595 14.1375 0.682234C14.9367 0.680499 15.7 0.829109 16.3998 1.21133C17.9906 2.07928 18.9348 3.42256 18.9672 5.23999C19.0255 8.5337 18.992 11.8297 18.9735 15.1246C18.9712 15.5484 18.8874 15.9908 18.7482 16.3921C18.1611 18.0823 16.9846 19.1469 15.2412 19.573C15.0696 19.6153 14.8951 19.6459 14.7217 19.6818L14.7223 19.6806ZM9.49456 18.0869V18.0898C11.0391 18.0898 12.5837 18.091 14.1289 18.0881C14.3196 18.0881 14.5114 18.0765 14.7004 18.0511C16.1958 17.8533 17.3868 16.5315 17.3914 15.0269C17.4018 11.806 17.3954 8.58516 17.3937 5.36432C17.3937 5.22958 17.3746 5.0937 17.3584 4.95954C17.1874 3.52722 15.8347 2.28687 14.3964 2.28167C11.1588 2.27068 7.92109 2.27704 4.68343 2.2782C4.54879 2.2782 4.413 2.29613 4.27894 2.31347C2.80486 2.50372 1.60178 3.8389 1.59716 5.32846C1.58676 8.55567 1.59312 11.7823 1.59485 15.0095C1.59485 15.1385 1.61334 15.2674 1.62894 15.3958C1.80981 16.8559 3.15099 18.0725 4.61987 18.0835C6.24476 18.0956 7.86966 18.0864 9.49514 18.0864L9.49456 18.0869Z" fill="#DE79F1"/>
<path d="M9.49002 5.43359C12.1117 5.43244 14.2364 7.55288 14.2399 10.1741C14.2428 12.8051 12.1163 14.9336 9.48713 14.9308C6.86718 14.9284 4.74649 12.8028 4.74707 10.1804C4.74765 7.5575 6.86834 5.43475 9.49002 5.43359ZM9.49002 7.02494C7.74493 7.02609 6.33788 8.43471 6.3373 10.1804C6.33672 11.9268 7.74204 13.3365 9.48655 13.3394C11.2397 13.3423 12.652 11.9291 12.6485 10.1747C12.645 8.4295 11.2357 7.02378 9.49002 7.02494Z" fill="#DE79F1"/>
<path d="M14.635 6.22382C13.9769 6.22267 13.4493 5.69357 13.4504 5.0361C13.4516 4.38152 13.9878 3.8426 14.6373 3.84375C15.2811 3.84491 15.8306 4.3954 15.8294 5.03841C15.8283 5.68837 15.288 6.2244 14.635 6.22325V6.22382Z" fill="#DE79F1"/>
</svg>
