<svg width="17" height="21" viewBox="0 0 17 21" fill="none" xmlns="http://www.w3.org/2000/svg">
<path d="M12.3575 20.3813C11.1276 20.0922 10.0752 19.4579 9.08716 18.7112C6.86507 17.0309 5.13147 14.9326 3.70415 12.5874C2.49475 10.6005 1.56373 8.50089 1.10593 6.22484C0.910796 5.25246 0.814958 4.27409 0.9478 3.28664C1.05956 2.45801 1.33815 1.73319 2.1461 1.30829C2.67441 1.03093 3.16923 0.684988 3.71735 0.455878C4.51488 0.122077 5.23511 0.307637 5.79445 0.967695C6.53518 1.842 6.98958 2.85913 7.17627 3.97463C7.28761 4.64064 7.04451 5.1988 6.48721 5.5992C6.18742 5.81499 5.87864 6.02475 5.55069 6.19555C5.13198 6.41326 4.95888 6.75782 5.05558 7.17846C5.18732 7.75044 5.33472 8.33318 5.58435 8.86306C6.46681 10.7369 7.58095 12.4766 8.97156 14.0348C9.30132 14.4048 9.72632 14.7022 10.1365 14.9932C10.4634 15.2252 10.8179 15.1807 11.1552 14.961C11.4569 14.7648 11.7687 14.5814 12.0873 14.4145C12.7493 14.0684 13.4128 14.0964 14.031 14.5222C14.9245 15.1377 15.6441 15.9168 16.124 16.881C16.5455 17.728 16.4267 18.4844 15.6947 19.0808C15.1107 19.5564 14.4523 19.955 13.7908 20.3279C13.3533 20.5742 12.8439 20.4982 12.3572 20.3829L12.3575 20.3813Z" fill="#DE79F1"/>
</svg>
