<svg width="37" height="47" viewBox="0 0 37 47" fill="none" xmlns="http://www.w3.org/2000/svg">
<g clip-path="url(#clip0_305_73047)">
<path d="M10.8661 2.13379H8.69287V27.7677H10.8661V2.13379Z" fill="#D4B03A"/>
<path d="M15.2402 0H10.8938V2.13388H15.2402V0Z" fill="#D4B03A"/>
<path d="M17.4134 2.13379H15.2402V21.366H17.4134V2.13379Z" fill="#D4B03A"/>
<path d="M21.7597 10.6968H17.4133V12.8307H21.7597V10.6968Z" fill="#D4B03A"/>
<path d="M23.933 14.9646H21.7598V21.3662H23.933V14.9646Z" fill="#D4B03A"/>
<path d="M28.2793 12.8306H21.7598V14.9644H28.2793V12.8306Z" fill="#D4B03A"/>
<path d="M30.4525 17.0984H28.2793V23.5H30.4525V17.0984Z" fill="#D4B03A"/>
<path d="M32.6257 14.9646H28.2793V17.0985H32.6257V14.9646Z" fill="#D4B03A"/>
<path d="M34.8268 17.0984H32.6536V19.2323H34.8268V17.0984Z" fill="#D4B03A"/>
<path d="M37.0001 19.2322H34.8269V34.1967H37.0001V19.2322Z" fill="#D4B03A"/>
<path d="M34.8268 34.1968H32.6536V40.5984H34.8268V34.1968Z" fill="#D4B03A"/>
<path d="M32.6258 40.5984H30.4526V47H32.6258V40.5984Z" fill="#D4B03A"/>
<path d="M30.4804 44.8662H10.8938V47.0001H30.4804V44.8662Z" fill="#D4B03A"/>
<path d="M8.69272 21.3662H6.51953V23.5001H8.69272V21.3662Z" fill="#D4B03A"/>
<path d="M6.51958 19.2322H0V21.3661H6.51958V19.2322Z" fill="#D4B03A"/>
<path d="M2.17319 21.3662H0V25.634H2.17319V21.3662Z" fill="#D4B03A"/>
<path d="M4.34629 25.6338H2.1731V27.7677H4.34629V25.6338Z" fill="#D4B03A"/>
<path d="M6.51963 27.7678H4.34644V32.0356H6.51963V27.7678Z" fill="#D4B03A"/>
<path d="M8.69272 32.0627H6.51953V36.3305H8.69272V32.0627Z" fill="#D4B03A"/>
<path d="M10.8661 36.3306H8.69287V40.5983H10.8661V36.3306Z" fill="#D4B03A"/>
<path d="M13.067 40.5984H10.8938V44.8661H13.067V40.5984Z" fill="#D4B03A"/>
</g>
<defs>
<clipPath id="clip0_305_73047">
<rect width="37" height="47" fill="white"/>
</clipPath>
</defs>
</svg>
