<svg width="74" height="95" viewBox="0 0 74 95" fill="none" xmlns="http://www.w3.org/2000/svg">
<g clip-path="url(#clip0_305_72919)">
<path d="M21.7319 4.31311H17.3855V56.1263H21.7319V4.31311Z" fill="#DE79F1"/>
<path d="M30.4804 0H21.7876V4.31315H30.4804V0Z" fill="#DE79F1"/>
<path d="M34.8269 4.31311H30.4805V43.1868H34.8269V4.31311Z" fill="#DE79F1"/>
<path d="M43.5197 21.6211H34.8269V25.9342H43.5197V21.6211Z" fill="#DE79F1"/>
<path d="M47.8659 30.2474H43.5195V43.1869H47.8659V30.2474Z" fill="#DE79F1"/>
<path d="M56.5587 25.9342H43.5195V30.2474H56.5587V25.9342Z" fill="#DE79F1"/>
<path d="M60.9052 34.5605H56.5588V47.5H60.9052V34.5605Z" fill="#DE79F1"/>
<path d="M65.2516 30.2474H56.5588V34.5606H65.2516V30.2474Z" fill="#DE79F1"/>
<path d="M69.6535 34.5605H65.3071V38.8737H69.6535V34.5605Z" fill="#DE79F1"/>
<path d="M73.9999 38.8737H69.6536V69.121H73.9999V38.8737Z" fill="#DE79F1"/>
<path d="M69.6535 69.1211H65.3071V82.0606H69.6535V69.1211Z" fill="#DE79F1"/>
<path d="M65.2514 82.0605H60.905V95H65.2514V82.0605Z" fill="#DE79F1"/>
<path d="M60.9608 90.6868H21.7876V95H60.9608V90.6868Z" fill="#DE79F1"/>
<path d="M17.3854 43.1869H13.0391V47.5H17.3854V43.1869Z" fill="#DE79F1"/>
<path d="M13.0392 38.8737H0V43.1868H13.0392V38.8737Z" fill="#DE79F1"/>
<path d="M4.34639 43.1869H0V51.8132H4.34639V43.1869Z" fill="#DE79F1"/>
<path d="M8.69282 51.8131H4.34644V56.1263H8.69282V51.8131Z" fill="#DE79F1"/>
<path d="M13.0393 56.1263H8.69287V64.7527H13.0393V56.1263Z" fill="#DE79F1"/>
<path d="M17.3854 64.8079H13.0391V73.4342H17.3854V64.8079Z" fill="#DE79F1"/>
<path d="M21.7319 73.4342H17.3855V82.0605H21.7319V73.4342Z" fill="#DE79F1"/>
<path d="M26.134 82.0605H21.7876V90.6869H26.134V82.0605Z" fill="#DE79F1"/>
</g>
<defs>
<clipPath id="clip0_305_72919">
<rect width="74" height="95" fill="white"/>
</clipPath>
</defs>
</svg>
