<svg width="45" height="16" viewBox="0 0 45 16" fill="none" xmlns="http://www.w3.org/2000/svg">
<path d="M15.9487 15.884H0V4.95911e-05H15.9487V15.884Z" fill="#D4B03A"/>
<path d="M14.7129 7.94005C14.7129 6.16075 14.0032 4.45432 12.7399 3.19617C11.4766 1.93802 9.76325 1.23119 7.9767 1.23119C7.0917 1.23058 6.21526 1.40366 5.39744 1.74053C4.57963 2.07741 3.83649 2.57149 3.21048 3.19452C2.58447 3.81756 2.08787 4.55734 1.74905 5.3716C1.41023 6.18586 1.23584 7.05863 1.23584 7.94005C1.23523 8.82185 1.40916 9.69513 1.74771 10.5099C2.08625 11.3247 2.58276 12.0651 3.20882 12.6886C3.83489 13.3121 4.57825 13.8066 5.39636 14.1438C6.21448 14.4809 7.09131 14.6542 7.9767 14.6536C9.76368 14.6523 11.477 13.9445 12.7402 12.6856C14.0033 11.4267 14.7129 9.71977 14.7129 7.94005Z" fill="#16171A"/>
<path d="M44.9487 15.884H29V4.95911e-05H44.9487V15.884Z" fill="#D4B03A"/>
<path d="M43.7129 7.94005C43.7129 6.16075 43.0032 4.45432 41.7399 3.19617C40.4766 1.93802 38.7633 1.23119 36.9767 1.23119C36.0917 1.23058 35.2153 1.40366 34.3974 1.74053C33.5796 2.07741 32.8365 2.57149 32.2105 3.19452C31.5845 3.81756 31.0879 4.55734 30.749 5.3716C30.4102 6.18586 30.2358 7.05863 30.2358 7.94005C30.2352 8.82185 30.4092 9.69513 30.7477 10.5099C31.0862 11.3247 31.5828 12.0651 32.2088 12.6886C32.8349 13.3121 33.5782 13.8066 34.3964 14.1438C35.2145 14.4809 36.0913 14.6542 36.9767 14.6536C38.7637 14.6523 40.477 13.9445 41.7402 12.6856C43.0033 11.4267 43.7129 9.71977 43.7129 7.94005Z" fill="white"/>
</svg>
