<svg width="154" height="327" viewBox="0 0 154 327" fill="none" xmlns="http://www.w3.org/2000/svg">
<path d="M7.62939e-05 224.07L34.0701 224.07L34.0701 190L7.92724e-05 190L7.62939e-05 224.07Z" fill="#DE79F1"/>
<path d="M2.65019 207.03C2.65019 203.214 4.16627 199.553 6.86492 196.855C9.56357 194.156 13.2237 192.64 17.0402 192.64C20.8576 192.64 24.5188 194.156 27.219 196.854C29.9192 199.552 31.4375 203.213 31.4402 207.03C31.4402 210.849 29.923 214.512 27.2225 217.212C24.522 219.913 20.8593 221.43 17.0402 221.43C13.2228 221.427 9.56267 219.909 6.86431 217.209C4.16595 214.509 2.65019 210.847 2.65019 207.03Z" fill="white"/>
<path d="M119 326.07L153.07 326.07L153.07 292L119 292L119 326.07Z" fill="#DE79F1"/>
<path d="M121.65 309.03C121.65 305.214 123.166 301.553 125.865 298.855C128.564 296.156 132.224 294.64 136.04 294.64C139.858 294.64 143.519 296.156 146.219 298.854C148.919 301.552 150.438 305.213 150.44 309.03C150.44 312.849 148.923 316.512 146.223 319.212C143.522 321.913 139.859 323.43 136.04 323.43C132.223 323.427 128.563 321.909 125.864 319.209C123.166 316.509 121.65 312.847 121.65 309.03" fill="white"/>
<path d="M51.4499 69.3199L51.45 103.39L17.38 103.39L17.38 69.32L51.4499 69.3199Z" fill="#DE79F1"/>
<path d="M-16.7501 69.2401L17.2999 69.2401L17.2999 35.1701L51.3699 35.17L51.3699 69.2401L85.4199 69.2401L85.4199 0.820068L-16.7501 0.820082L-16.7501 69.2401Z" fill="#DE79F1"/>
<path d="M119.49 69.2401L119.49 103.31L85.42 103.31L85.42 69.2401L119.49 69.2401Z" fill="#DE79F1"/>
<path d="M153.31 103.31L153.31 137.38L119.24 137.38L119.24 103.31L153.31 103.31Z" fill="#DE79F1"/>
<path d="M102.45 71.9701C98.6354 71.9727 94.9778 73.49 92.2813 76.1884C89.5848 78.8867 88.0701 82.5454 88.0701 86.3601C88.0701 90.1775 89.5859 93.8386 92.2842 96.5389C94.9826 99.2391 98.6427 100.757 102.46 100.76C106.279 100.76 109.942 99.2429 112.642 96.5424C115.343 93.8419 116.86 90.1792 116.86 86.3601C116.86 84.4695 116.488 82.5975 115.764 80.851C115.04 79.1044 113.979 77.5176 112.642 76.1813C111.305 74.8449 109.717 73.7852 107.97 73.0626C106.223 72.34 104.351 71.9688 102.46 71.9701" fill="white"/>
</svg>
