<svg width="156" height="157" viewBox="0 0 246 247" fill="none" xmlns="http://www.w3.org/2000/svg">
<path d="M123 0H245.987V123.074H123V0Z" fill="#DE79F1"/>
<path d="M129.048 61.6224C129.048 72.6441 132.314 83.4182 138.434 92.5824C144.555 101.747 153.253 108.889 163.431 113.107C173.608 117.325 184.807 118.428 195.612 116.278C206.416 114.128 216.341 108.821 224.13 101.027C231.92 93.2335 237.224 83.304 239.374 72.4941C241.523 61.6842 240.42 50.4794 236.204 40.2967C231.988 30.1139 224.849 21.4106 215.69 15.2873C206.53 9.164 195.762 5.89568 184.746 5.89568C169.974 5.89568 155.807 11.7669 145.361 22.2177C134.916 32.6685 129.048 46.8427 129.048 61.6224" fill="white"/>
<path d="M-3.05176e-05 123H122.987V246.074H-3.05176e-05V123Z" fill="#DE79F1"/>
<path d="M6.04752 184.622C6.04752 195.644 9.31424 206.418 15.4344 215.582C21.5546 224.747 30.2535 231.889 40.431 236.107C50.6085 240.325 61.8075 241.428 72.6118 239.278C83.4162 237.128 93.3407 231.821 101.13 224.027C108.92 216.234 114.224 206.304 116.374 195.494C118.523 184.684 117.42 173.479 113.204 163.297C108.988 153.114 101.849 144.411 92.6899 138.287C83.5304 132.164 72.7617 128.896 61.7456 128.896C46.9736 128.896 32.8065 134.767 22.3611 145.218C11.9157 155.668 6.04752 169.843 6.04752 184.622" fill="white"/>
</svg>
