<svg width="355" height="136" viewBox="0 0 355 136" fill="none" xmlns="http://www.w3.org/2000/svg">
<g clip-path="url(#clip0_357_2950)">
<path d="M322.934 47.6799H306.985V31.7959H322.934V47.6799Z" fill="#DE79F1"/>
<path d="M322.972 15.884V31.7587H338.92V47.6427H322.972V63.5173H355V15.884H322.972Z" fill="#DE79F1"/>
<path d="M322.972 79.4014H307.023V63.5174H322.972V79.4014Z" fill="#DE79F1"/>
<path d="M307.023 95.1687H291.074V79.2847H307.023V95.1687Z" fill="#DE79F1"/>
<path d="M228.949 31.884H213V16H228.949V31.884Z" fill="#DE79F1"/>
<path d="M114.949 87.884H99V72H114.949V87.884Z" fill="#DE79F1"/>
<path d="M113.708 79.9398C113.708 78.1605 112.999 76.4541 111.735 75.1959C110.472 73.9378 108.759 73.231 106.972 73.231C105.185 73.231 103.471 73.9376 102.207 75.1956C100.943 76.4537 100.232 78.1601 100.231 79.9398C100.231 81.7203 100.941 83.428 102.206 84.687C103.47 85.946 105.184 86.6533 106.972 86.6533C108.759 86.6521 110.472 85.9442 111.736 84.6853C112.999 83.4264 113.708 81.7195 113.708 79.9398Z" fill="white"/>
<path d="M227.713 23.9396C227.713 22.1603 227.003 20.4538 225.74 19.1957C224.477 17.9375 222.763 17.2307 220.977 17.2307C220.092 17.2301 219.215 17.4032 218.397 17.74C217.58 18.0769 216.836 18.571 216.21 19.194C215.584 19.8171 215.088 20.5569 214.749 21.3711C214.41 22.1854 214.236 23.0581 214.236 23.9396C214.235 24.8214 214.409 25.6946 214.748 26.5094C215.086 27.3242 215.583 28.0646 216.209 28.6881C216.835 29.3116 217.578 29.8061 218.396 30.1433C219.214 30.4805 220.091 30.6537 220.977 30.6531C222.764 30.6518 224.477 29.944 225.74 28.6851C227.003 27.4262 227.713 25.7193 227.713 23.9396Z" fill="white"/>
<path d="M321.694 71.4571C321.692 69.6786 320.982 67.9734 319.719 66.7163C318.456 65.4591 316.743 64.7529 314.957 64.7529C313.17 64.7529 311.457 65.4596 310.193 66.7176C308.929 67.9756 308.218 69.6821 308.217 71.4618C308.217 73.2423 308.927 74.9499 310.191 76.209C311.455 77.468 313.17 78.1753 314.957 78.1753C315.842 78.1753 316.719 78.0016 317.536 77.6642C318.354 77.3267 319.097 76.8321 319.722 76.2087C320.348 75.5852 320.844 74.8451 321.182 74.0306C321.52 73.2161 321.694 72.3432 321.694 71.4618" fill="white"/>
</g>
<defs>
<clipPath id="clip0_357_2950">
<rect width="355" height="136" fill="white" transform="matrix(1 0 0 -1 0 136)"/>
</clipPath>
</defs>
</svg>
