<svg width="453" height="171" viewBox="0 0 453 171" fill="none" xmlns="http://www.w3.org/2000/svg">
<path d="M68.4998 68.63L102.57 68.63L102.57 34.56L68.4998 34.56L68.4998 68.63Z" fill="#DE79F1"/>
<path d="M68.4199 0.429962L68.4199 34.48L34.3499 34.48L34.3499 68.55L68.4199 68.55L68.4199 102.6L-6.10352e-05 102.6L-5.21032e-05 0.429956L68.4199 0.429962Z" fill="#DE79F1"/>
<path d="M68.4197 136.67L102.49 136.67L102.49 102.6L68.4197 102.6L68.4197 136.67Z" fill="#DE79F1"/>
<path d="M102.49 170.49L136.56 170.49L136.56 136.42L102.49 136.42L102.49 170.49Z" fill="#DE79F1"/>
<path d="M266 34.07L300.07 34.07L300.07 3.05176e-05L266 2.75391e-05L266 34.07Z" fill="#DE79F1"/>
<path d="M418 170.07L452.07 170.07L452.07 136L418 136L418 170.07Z" fill="#DE79F1"/>
<path d="M420.65 153.03C420.65 149.213 422.166 145.553 424.865 142.855C427.563 140.156 431.223 138.64 435.04 138.64C438.857 138.64 442.519 140.156 445.219 142.854C447.919 145.552 449.437 149.213 449.44 153.03C449.44 156.849 447.923 160.512 445.222 163.212C442.522 165.913 438.859 167.43 435.04 167.43C431.223 167.427 427.562 165.909 424.864 163.209C422.166 160.509 420.65 156.847 420.65 153.03Z" fill="white"/>
<path d="M268.64 17.03C268.64 13.2135 270.156 9.55337 272.855 6.85472C275.554 4.15607 279.214 2.63999 283.03 2.63999C284.921 2.63867 286.793 3.00991 288.54 3.73249C290.287 4.45506 291.875 5.51482 293.212 6.85118C294.549 8.18755 295.61 9.77434 296.334 11.5209C297.058 13.2674 297.43 15.1394 297.43 17.03C297.431 18.9214 297.06 20.7945 296.337 22.5422C295.614 24.2899 294.553 25.8778 293.215 27.2153C291.878 28.5527 290.29 29.6133 288.542 30.3365C286.795 31.0597 284.922 31.4313 283.03 31.43C279.213 31.4273 275.553 29.909 272.854 27.2088C270.156 24.5086 268.64 20.8474 268.64 17.03Z" fill="white"/>
<path d="M71.15 119.63C71.1526 115.815 72.6699 112.158 75.3682 109.461C78.0666 106.765 81.7252 105.25 85.54 105.25C89.3574 105.25 93.0185 106.766 95.7188 109.464C98.419 112.162 99.9373 115.823 99.9399 119.64C99.9399 123.459 98.4228 127.122 95.7223 129.822C93.0218 132.523 89.3591 134.04 85.54 134.04C83.6494 134.04 81.7773 133.667 80.0308 132.944C78.2843 132.22 76.6975 131.159 75.3611 129.822C74.0248 128.484 72.9651 126.897 72.2425 125.15C71.5199 123.403 71.1487 121.53 71.15 119.64" fill="white"/>
</svg>
