<svg width="561" height="175" viewBox="0 0 561 175" fill="none" xmlns="http://www.w3.org/2000/svg">
<path d="M490.816 70.4752H455.909V35.6705H490.816V70.4752Z" fill="#D4B03A"/>
<path d="M490.898 0.804611V35.5888H525.806V70.3935H490.898V105.178H561V0.804611H490.898Z" fill="#D4B03A"/>
<path d="M490.898 139.982H455.991V105.178H490.898V139.982Z" fill="#D4B03A"/>
<path d="M455.991 174.532H421.083V139.727H455.991V174.532Z" fill="#D4B03A"/>
<path d="M285.107 35.8635H250.2V1.05892H285.107V35.8635Z" fill="#D4B03A"/>
<path d="M35.592 158.569H0.68457V123.765H35.592V158.569Z" fill="#D4B03A"/>
<path d="M32.877 141.162C32.877 137.263 31.3237 133.524 28.5587 130.768C25.7937 128.011 22.0436 126.462 18.1333 126.462C14.2221 126.462 10.471 128.01 7.70434 130.767C4.93774 133.524 3.38211 137.263 3.37939 141.162C3.37939 145.064 4.93382 148.805 7.70072 151.564C10.4676 154.323 14.2203 155.873 18.1333 155.873C22.0445 155.87 25.7946 154.319 28.5593 151.561C31.324 148.802 32.877 145.062 32.877 141.162" fill="white"/>
<path d="M282.402 18.4558C282.402 14.5571 280.849 10.818 278.084 8.06115C275.319 5.30431 271.569 3.75553 267.659 3.75553C265.722 3.75419 263.803 4.13343 262.013 4.87159C260.223 5.60975 258.597 6.69235 257.227 8.05753C255.857 9.42271 254.77 11.0437 254.028 12.8279C253.286 14.6121 252.905 16.5245 252.905 18.4558C252.903 20.388 253.284 22.3015 254.025 24.0869C254.766 25.8722 255.853 27.4944 257.223 28.8607C258.593 30.227 260.22 31.3105 262.011 32.0493C263.802 32.7881 265.721 33.1677 267.659 33.1663C271.57 33.1636 275.32 31.6126 278.085 28.8541C280.849 26.0956 282.402 22.3555 282.402 18.4558Z" fill="white"/>
<path d="M488.101 122.575C488.098 118.678 486.544 114.941 483.779 112.187C481.015 109.432 477.266 107.885 473.357 107.885C469.446 107.885 465.695 109.433 462.928 112.19C460.162 114.946 458.606 118.685 458.604 122.585C458.604 126.487 460.158 130.228 462.925 132.987C465.692 135.746 469.444 137.296 473.357 137.296C475.294 137.296 477.213 136.915 479.002 136.176C480.791 135.436 482.417 134.353 483.786 132.986C485.156 131.62 486.241 129.998 486.982 128.214C487.722 126.429 488.102 124.516 488.101 122.585" fill="white"/>
</svg>
