<svg width="141" height="18" viewBox="0 0 141 18" fill="none" xmlns="http://www.w3.org/2000/svg">
<g clip-path="url(#clip0_701_758)">
<path d="M0 15.6577V0H12.724V2.24305H14.8377V8.95763H12.724V11.1861H4.24134V15.6577H0ZM4.24134 8.95763H10.5964V2.24305H4.24134V8.95763Z" fill="white"/>
<path d="M20.1428 15.6579V13.4294H18.0153V11.1864H20.1428V8.95787H28.6255V6.71482H20.1428V4.48633H30.7392V6.71482H32.8668V15.6579H20.1428ZM22.2566 13.4294H28.6255V11.1864H22.2566V13.4294Z" fill="white"/>
<path d="M36.0444 15.6579V4.48633H48.7684V6.71482H50.9513V15.6579H46.7099V6.71482H44.5962V15.6579H40.3548V6.71482H38.2273V15.6579H36.0444Z" fill="white"/>
<path d="M54.0597 17.901V4.48633H66.7837V6.71482H68.9113V11.1864H66.7837V13.4294H58.301V17.901H54.0597ZM58.301 11.1864H64.6699V6.71482H58.301V11.1864Z" fill="white"/>
<path d="M74.2025 15.6579V13.4294H72.075V11.1864H74.2025V8.95787H82.7266V6.71482H74.2439V4.48633H84.8542V6.71482H86.8712V15.6579H74.2025ZM76.3162 13.4294H82.7266V11.1864H76.3577L76.3162 13.4294Z" fill="white"/>
<path d="M92.2178 15.6577V13.4292H90.104V11.1861H94.3454V13.4292H100.687V8.95763H92.1902V6.71459H90.0764V2.24305H92.1902V0H102.8V2.24305H104.928V4.48609H100.687V2.24305H94.3178V6.71459H102.8V8.95763H104.928V13.4292H102.8V15.6577H92.2178Z" fill="white"/>
<path d="M110.247 15.6579V13.4294H108.119V6.71482H110.247V4.48633H120.857V6.71482H122.971V11.1864H112.361V13.4294H120.857V15.6579H110.247ZM112.361 8.95787H118.73V6.71482H112.361V8.95787Z" fill="white"/>
<path d="M128.317 17.901V15.6579H136.814V13.4294H128.317V11.1864H126.204V6.71482H128.317V4.48633H141.055V15.6579H138.928V17.901H128.317ZM130.445 11.1864H136.814V6.71482H130.39L130.445 11.1864Z" fill="white"/>
</g>
<defs>
<clipPath id="clip0_701_758">
<rect width="141" height="17.8862" fill="white"/>
</clipPath>
</defs>
</svg>
